<?xml version="1.0" encoding="UTF-8"?>
<svg id="Ebene_2" data-name="Ebene 2" xmlns="http://www.w3.org/2000/svg" viewBox="0 0 287.24 247.78">
  <defs>
    <style>
      .cls-1 {
        fill: #edc461;
      }

      .cls-2 {
        fill: #5b6e4f;
      }

      .cls-3 {
        fill: #5d6e4d;
      }
    </style>
  </defs>
  <g id="Ebene_1-2" data-name="Ebene 1">
    <polygon class="cls-1" points="65.83 151.05 52.51 151.05 52.51 148.47 62.77 142.27 63.01 142.51 52.51 142.51 52.51 140.21 65.83 140.21 65.83 142.81 55.73 148.99 55.49 148.75 65.83 148.75 65.83 151.05"/>
    <path class="cls-1" d="m63.31,129.79h-2.1v-7.58h2.1v7.58Zm2.53,2.55l-13.33-5.41v-1.72l13.33-5.41v2.55l-9.93,3.73,9.93,3.73v2.55Z"/>
    <path class="cls-1" d="m65.84,110.09h-12.24v-2.36h12.24v2.36Zm-11.23,4h-2.1v-10.36h2.1v10.36Z"/>
    <g>
      <path class="cls-1" d="m65.98,91.31c0,1.64-.43,2.91-1.3,3.8-.87.9-2.09,1.35-3.66,1.35h-8.51v-2.37h8.57c.87,0,1.54-.24,2.02-.73.48-.48.71-1.17.71-2.06s-.24-1.58-.71-2.07c-.48-.49-1.15-.73-2.02-.73h-8.57v-2.37h8.51c1.58,0,2.8.45,3.66,1.35.86.9,1.3,2.18,1.3,3.82"/>
      <path class="cls-1" d="m68.23,70.15l-6.52,2,.13-2.49,7.02-2.28-.63,2.77Zm-6.89,5.48l-2.05-.47,1.1-4.84c.11-.49.04-.93-.22-1.3-.26-.37-.65-.62-1.19-.75-.53-.12-.99-.07-1.39.16-.39.23-.65.59-.76,1.08l-1.1,4.84-2.05-.47,1.12-4.91c.18-.8.5-1.46.95-1.98.45-.52,1-.89,1.65-1.09.65-.2,1.36-.21,2.12-.04.77.18,1.4.49,1.9.96.5.47.84,1.03,1.02,1.7.18.67.18,1.4,0,2.2l-1.12,4.91Zm5.15,2.18l-13.01-2.96.53-2.31,13.01,2.96-.53,2.31Z"/>
    </g>
    <path class="cls-1" d="m69.78,58.35l-1.87-.96,3.49-6.73,1.86.97-3.48,6.73Zm1.08,3.43l-9.35-10.93.79-1.53,14.33,1.32-1.17,2.26-10.53-1.26,7.11,7.87-1.17,2.26Z"/>
    <path class="cls-1" d="m81.68,43.9l-1.59-1.38,5.46-6.31,1.59,1.37-5.46,6.31Zm-.73.84l-10.08-8.73,1.55-1.79,10.08,8.73-1.55,1.79Z"/>
    <path class="cls-1" d="m100.03,20.77l-1.02-1.82,6.27-3.5,1.02,1.83-6.27,3.5Zm-2.82-5.04l-1.02-1.83,7.22-4.03,1.02,1.83-7.23,4.03Zm4.61,10.29l-6.5-11.64,2.07-1.15,6.5,11.64-2.07,1.15Z"/>
    <path class="cls-1" d="m117.97,18.26l-.62-2.01,8.09-2.52.63,2-8.09,2.53Zm-1.66-5.32l-.62-1.99,7.05-2.2.62,2-7.05,2.2Zm-1.69-5.4l-.63-2.01,8.09-2.53.63,2.01-8.09,2.53Zm2.41,11.01l-3.98-12.73,2.26-.71,3.97,12.73-2.26.71Z"/>
    <path class="cls-1" d="m141.83,13.44l-3.93-5.57,2.41-.65,4.35,5.96-2.83.26Zm-7.36-4.84l-.19-2.09,4.94-.46c.51-.05.9-.25,1.17-.61.27-.36.39-.81.34-1.36-.05-.54-.24-.96-.58-1.27-.34-.3-.76-.43-1.26-.38l-4.94.46-.19-2.09,5.01-.47c.82-.08,1.54.02,2.18.29.64.27,1.15.68,1.55,1.23.39.55.63,1.22.7,2.01.07.79-.04,1.49-.32,2.1-.29.62-.72,1.12-1.3,1.5-.57.38-1.27.61-2.09.69l-5.01.46Zm-.47,5.57l-1.23-13.29,2.36-.22,1.23,13.29-2.36.22Z"/>
    <path class="cls-1" d="m154.65,13.67l1.23-12.18,2.35.24-1.23,12.18-2.35-.24Zm-2.85-11.58l.21-2.09,10.31,1.05-.21,2.09-10.31-1.05Z"/>
    <rect class="cls-1" x="164.27" y="8.58" width="13.33" height="2.42" transform="translate(117.62 172.49) rotate(-75.13)"/>
    <path class="cls-1" d="m179.78,19.73l.87-1.91,7.6,3.45-.87,1.91-7.6-3.45Zm-1.01-.46l5.52-12.14,2.16.98-5.52,12.14-2.16-.98Z"/>
    <rect class="cls-1" x="191.93" y="21.17" width="13.33" height="2.42" transform="translate(68.45 174.04) rotate(-55.8)"/>
    <path class="cls-1" d="m209.79,25.04l1.46-1.51,7.44,7.22-1.46,1.51-7.44-7.22Zm-4.95,10.85l8.53-8.78,1.69,1.64-8.53,8.78-1.69-1.64Z"/>
    <polygon class="cls-1" points="230.4 46.65 221.3 47.49 216.9 50.41 215.6 48.44 220 45.53 224.33 37.48 225.74 39.6 222.46 45.31 228.99 44.53 230.4 46.65"/>
    <g>
      <path class="cls-1" d="m226.14,71.52l2.03-.4.82,4.17c.16.83.44,1.41.84,1.73.4.32.87.43,1.42.32h.03c.58-.12.99-.38,1.25-.8.26-.42.32-.99.18-1.73l-.86-4.42,2.02-.39.86,4.42c.12.64.36,1.1.72,1.38.35.28.8.37,1.35.26.54-.1.91-.36,1.12-.77.21-.41.25-.96.11-1.66l-.83-4.28,2.03-.4.88,4.5c.27,1.39.16,2.5-.33,3.34-.49.84-1.29,1.37-2.39,1.58-.71.14-1.37.03-1.97-.31-.61-.35-1.07-.95-1.39-1.81.06.93-.15,1.7-.62,2.31-.47.61-1.12,1-1.93,1.15h-.03c-1.1.22-2.04.01-2.82-.61-.79-.63-1.31-1.6-1.57-2.93l-.91-4.67Zm-.23-1.17l13.09-2.56.45,2.32-13.09,2.56-.45-2.31Z"/>
      <path class="cls-1" d="m230.17,93.3c0,.83.24,1.49.73,1.98.49.49,1.14.74,1.94.74h3.91c.81,0,1.46-.25,1.95-.74.49-.5.73-1.16.73-1.98s-.24-1.48-.73-1.98c-.49-.5-1.14-.75-1.95-.75h-3.91c-.81,0-1.46.25-1.94.75-.49.5-.73,1.16-.73,1.98m-2.17,0c0-1.04.2-1.94.61-2.72.41-.78.98-1.38,1.72-1.8.74-.43,1.6-.64,2.59-.64h3.78c.99,0,1.85.21,2.59.64.74.43,1.31,1.03,1.72,1.8.41.78.61,1.68.61,2.72s-.2,1.94-.61,2.72c-.41.78-.98,1.38-1.72,1.8-.74.43-1.6.64-2.59.64h-3.78c-.99,0-1.85-.21-2.59-.64-.74-.43-1.31-1.03-1.72-1.8-.41-.78-.61-1.68-.61-2.72"/>
      <path class="cls-1" d="m230.17,112.1c0,.83.24,1.49.73,1.98.49.49,1.14.74,1.94.74h3.91c.81,0,1.46-.25,1.95-.74.49-.5.73-1.16.73-1.98s-.24-1.48-.73-1.98c-.49-.5-1.14-.75-1.95-.75h-3.91c-.81,0-1.46.25-1.94.75-.49.5-.73,1.16-.73,1.98m-2.17,0c0-1.04.2-1.95.61-2.72.41-.78.98-1.38,1.72-1.8.74-.43,1.6-.64,2.59-.64h3.78c.99,0,1.85.21,2.59.64.74.43,1.31,1.03,1.72,1.8.41.77.61,1.68.61,2.72s-.2,1.94-.61,2.72c-.41.78-.98,1.38-1.72,1.8-.74.43-1.6.64-2.59.64h-3.78c-.99,0-1.85-.21-2.59-.64-.74-.43-1.31-1.03-1.72-1.8-.41-.78-.61-1.68-.61-2.72"/>
      <path class="cls-1" d="m228,130.47c0-.69.06-1.36.19-2s.31-1.23.56-1.79c.24-.55.55-1.07.91-1.54l1.75,1.26c-.43.55-.76,1.18-.98,1.87-.22.69-.34,1.42-.34,2.2,0,.96.16,1.71.48,2.24.32.53.77.8,1.35.8h0c.45,0,.79-.13,1.03-.4.24-.27.41-.62.53-1.05.11-.44.21-.91.29-1.43.08-.55.18-1.11.3-1.67.12-.57.31-1.08.56-1.56.25-.47.62-.85,1.09-1.14.47-.29,1.1-.43,1.89-.43h0c1.27,0,2.26.45,2.95,1.36.7.91,1.04,2.19,1.04,3.85,0,.77-.12,1.55-.35,2.32-.23.77-.58,1.51-1.04,2.21l-1.8-1.15c.37-.56.65-1.12.84-1.7.19-.57.28-1.14.28-1.68,0-.91-.15-1.62-.46-2.12-.31-.5-.74-.75-1.31-.75h0c-.46,0-.82.15-1.06.44-.24.29-.42.68-.54,1.15-.12.47-.23.98-.33,1.53-.1.54-.22,1.08-.36,1.62-.14.54-.34,1.03-.61,1.47-.26.44-.62.8-1.09,1.07-.46.27-1.06.4-1.8.4h-.02c-1.26,0-2.23-.47-2.92-1.41-.69-.94-1.03-2.27-1.03-3.98"/>
    </g>
    <path class="cls-1" d="m239.37,142.62h2.1v10.36h-2.1v-10.36Zm-11.23,4h12.24v2.36h-12.24v-2.36Z"/>
    <g>
      <path class="cls-2" d="m141.49,52.09c.54.55,1.43.55,1.98,0,.26-.26.41-.62.41-.99s-.15-.72-.41-.99c-.84-.84-1.96-1.31-3.16-1.31-1.19,0-2.32.46-3.16,1.31-.27.26-.41.62-.41.99s.14.72.41.99.61.41.99.41.72-.15.99-.41c.63-.63,1.73-.63,2.36,0"/>
      <path class="cls-2" d="m168.13,57.45h-18.22c.42-.51.8-1.06,1.14-1.63.1-.18.21-.36.31-.55.12-.23.23-.46.32-.69.08-.18.15-.36.22-.55l16.23,3.42Zm6.49.46l-.29-.16c-.57-.33-1.06-.71-1.46-1.11-.33-.33-.61-.65-.83-.98-.9-1.27-1.37-2.72-1.37-4.23.86.36,1.63.88,2.32,1.55.3.29.58.62.9,1.07.26.38.49.78.68,1.21.33.76.53,1.61.59,2.52.01.13.02.26.02.4-.18-.08-.36-.17-.56-.27m2.96-1.67c-.16-1.14-.47-2.26-.92-3.35.13-.1.26-.19.4-.27.24-.15.49-.29.96-.51.13-.06.26-.13.39-.18.32-.13.66-.22.99-.31l.26-.07c.08-.02.15-.05.24-.06.1-.02.2-.04.3-.05-.3,1.83-1.23,3.54-2.61,4.81m-.83,23.86c.93-.21,1.58-1.03,1.58-1.98,0-.15-.02-.3-.05-.46-.25-1.09-1.34-1.79-2.44-1.53l-5.39,1.24-2.12-4.9c-.4-.93-.61-1.91-.63-2.93-.05-4.2,3.33-7.67,7.51-7.74h.13c2.71,0,5.19,1.42,6.56,3.74l-11.04,2.56c-.93.21-1.58,1.03-1.58,1.98,0,.16.02.32.05.46.12.52.45.97.92,1.26.46.29,1.02.39,1.53.26l11.2-2.6c0,.93-.18,1.85-.54,2.78l-6.79,17.16-3.57-8.24,4.65-1.07Zm-42.91,44.75v9.99h-9.99l9.99-9.99Zm2.1-67.24c-.52.57-.67,1.36-.41,2.08,2.8,7.61,7.26,14.63,12.85,20.25.07.11.15.2.24.29,6.08,6.08,9.43,14.16,9.43,22.76,0,6.59-3.67,12.49-9.47,15.42,2.47-2.97,3.86-6.74,3.86-10.58,0-1.12-.91-2.04-2.04-2.04s-2.04.91-2.04,2.04c0,6.87-5.59,12.47-12.45,12.49h-4.87c-6.9,0-13.3,3.29-17.33,8.85v-1.97c0-14.89,12.12-27,27.03-27h.11c5.05-.08,9.17-4.25,9.17-9.3,0-1.12-.91-2.04-2.04-2.04s-2.04.91-2.04,2.04c0,2.88-2.39,5.23-5.33,5.23-11.18.04-21.37,6.02-26.88,15.7.45-14.5,12.39-26.16,27-26.16h2.11c.8,0,1.52-.47,1.85-1.19.33-.72.2-1.58-.32-2.18-7.28-8.35-11.29-19.05-11.29-30.13,0-2.88,3.43-5.22,7.65-5.22s7.64,2.34,7.64,5.22c0,.04,0,.07-.02.13-.02.08-.03.16-.06.38-.02.19-.04.37-.09.52l-.07.15c-.83,2.34-3.94,4.04-7.41,4.04h-.08c-.89,0-1.79-.13-2.67-.37-.74-.2-1.52.03-2.04.59m47.96,3.85h.39c1.05,0,1.92-.79,2.03-1.83.11-1.04-.58-1.99-1.61-2.2l-2.92-.62c.98-1.44,1.49-3.1,1.5-4.83,0-.86-.35-1.71-.96-2.32-.62-.62-1.44-.96-2.32-.96-1.77,0-3.54.58-5,1.62-.98-.78-2.12-1.32-3.33-1.56-.85-.17-1.75,0-2.46.49-.73.49-1.23,1.23-1.4,2.09-.16.82-.18,1.66-.07,2.51l-15.48-3.26c-.95-4.49-5.76-7.73-11.55-7.73-6.46,0-11.72,4.17-11.72,9.3,0,10.54,3.42,20.99,9.65,29.5-16.32,1.08-29.01,14.59-29.01,31.01v29.05c0,1.12.91,2.04,2.04,2.04s2.04-.91,2.04-2.04c0-8.6,6.22-15.79,14.6-17.1l-10.82,10.81c-.38.38-.6.9-.6,1.44,0,.27.05.53.15.78.32.76,1.05,1.26,1.88,1.26h14.91v15.3c0,1.12.91,2.04,2.04,2.04s2.04-.91,2.04-2.04v-15.3h14.06l4.24,4.25c.73.73,2.15.74,2.88,0,.38-.38.6-.9.6-1.44s-.21-1.05-.59-1.44l-4.84-4.85c-.39-.38-.9-.6-1.44-.6h-14.91v-10.45h2.8c11.69,0,21.29-9.51,21.4-21.2v-.4c-.05-9.52-3.74-18.47-10.35-25.15-.07-.1-.15-.2-.24-.29-4.5-4.5-8.26-9.99-10.88-15.89.04,0,.08,0,.12,0h26.03c-2.07,2.21-3.21,5.16-3.17,8.2.03,1.53.36,3.02.96,4.43l9.29,21.44c.32.75,1.07,1.23,1.9,1.23.83-.01,1.56-.52,1.86-1.29l8.54-21.61.06-.13c.56-1.44.83-2.94.82-4.48-.05-2.94-1.16-5.68-3.16-7.8"/>
      <path class="cls-2" d="m5.43,180.8c-.73-.47-1.55-.72-2.35-.72h-.37c-.83.08-1.36.47-1.63,1.22-.37.88-.63,1.96-.81,3.33-.18,3.26-.27,6.35-.27,9.43,0,4.1.09,8.01.28,11.94l.14,5.07c.09,2.74.56,4.85,1.38,6.29.85,1.52,1.87,2.58,3.03,3.14,1.23.59,2.43.89,3.59.89h.32c1.83-.09,3.79-.48,5.83-1.18,1.98-.69,3.68-1.6,5.05-2.71.48-.39.81-.81,1.06-1.36.23-.61.34-1.06.34-1.48,0-.3-.07-.56-.22-.79-.17-.24-.4-.36-.7-.36-.37,0-1.1.21-2.43,1.22-1.07.82-2.41,1.43-3.98,1.8-1.51.4-2.75.61-3.66.61-.23,0-.44,0-.62-.05-.58-.06-1.16-.25-1.69-.54-.58-.24-1.15-.88-1.61-1.84-.46-.97-.77-2.49-.9-4.39-.05-.86-.09-1.9-.09-3.1,0-3.65.18-7.84.55-12.81.28-4.18.56-7.89.78-10.17.05-.23.05-.49.05-.71,0-1.31-.36-2.23-1.06-2.73"/>
      <path class="cls-3" d="m26.25,194.18c-1.31,0-2.79.89-3.6,2.16-.13.34-.2.68-.2,1,0,1.52,1.36,2.66,3.17,2.66h.08c1.75-.04,2.66-1.58,2.66-3.08,0-.54-.12-1.09-.35-1.64-.38-.92-1.17-1.11-1.77-1.11"/>
      <path class="cls-2" d="m25.29,204.76c-1.29,0-2.19,1.11-2.46,3.04-.16,1.04-.33,2.85-.33,4.78,0,2.89.42,7.83,3.2,8.46.45.08.88.16,1.36.16,3.95,0,9.25-2.74,10.53-3.94.96-.87,1.16-1.49,1.16-1.87,0-.63-.62-.86-1.19-.86-.34,0-.72.07-1.2.24-.67.24-1.45.57-2.28.93-1.79.77-3.64,1.57-4.88,1.57-.37,0-.83-.05-1.17-.45-.37-.5-.54-1.41-.54-2.81,0-1.58.23-3.49.41-5.03.05-.45.1-.86.14-1.22,0-.06.01-.15.03-.23.01-1.62-1.46-2.78-2.78-2.78"/>
      <path class="cls-2" d="m86.31,215.11c.42-3.94,2.67-6.03,4.14-6.03.56,0,.98.31,1.14.86.06.1.06.28.06.38,0,1.85-3.06,4.08-4.86,5.11l-.54.31.07-.62Zm-19.98-3.12c.08,2.49.51,4.42,1.26,5.73.77,1.39,1.7,2.35,2.76,2.85,1.12.54,2.21.81,3.26.81h.29c1.66-.08,3.46-.44,5.31-1.07,1.1-.38,2.16-.88,3.13-1.46l.29-.18.15.31c.49.98,1.23,1.74,2.18,2.27,1.28.7,2.81,1.05,4.55,1.05,4.37,0,9.28-2.16,11.98-4.18,1.67-1.23,2.52-2.22,2.52-2.93,0-.22-.09-.41-.26-.55-.27-.23-.54-.35-.81-.35-.52,0-1.2.29-2,.86-2.48,1.74-7.26,3.54-10.97,3.54h-2.74l2.06-.62c2.03-.61,6.12-3.56,6.37-7.61v-.4c0-3.22-2.28-5.65-5.31-5.65-.48,0-1,.08-1.5.24-3.4,1.06-6.56,5.98-6.77,10.53v.15s-.13.09-.13.09c-.97.72-2.16,1.25-3.54,1.58-1.38.37-2.51.55-3.35.55-.22,0-.4,0-.57-.05-.54-.05-1.07-.23-1.55-.49-.54-.22-1.06-.81-1.48-1.69-.42-.89-.71-2.28-.83-4.02-.04-.79-.09-1.74-.09-2.84,0-3.33.17-7.16.5-11.69.25-3.83.51-7.22.71-9.28.04-.21.04-.44.04-.64,0-1.19-.32-2.02-.96-2.47-.66-.43-1.4-.66-2.12-.66h-.34c-.74.07-1.22.42-1.46,1.09-.34.8-.58,1.79-.74,3.04-.16,2.81-.24,5.52-.24,8.29v.6s-.5-.34-.5-.34c-.1-.06-.21-.14-.35-.18-.71-.25-1.59-.38-2.52-.51l-.45-.07c-1.42-.19-1.87-.21-2.68-.25-.25-.01-.54-.02-.9-.04l-.32-.02.02-.32c.06-.99.1-1.89.13-2.63l.25-4.92c.18-3.7.39-6.69.5-7.91,0-.07.01-.16.02-.26,0-.07.02-.14.02-.21,0-2.79-2.28-3.42-3.08-3.42h-.08c-.96.04-2.15.41-2.33,1.9-.08.61-.08,1.89-.08,3.36v10.62c0,1.24,0,2.52-.04,3.83v.28s-.29.02-.29.02c-.94.08-1.73.16-2.4.26h-.05s-.05,0-.05,0c-.49-.1-1.01-.17-1.57-.26l-.34-.05c-1.42-.19-1.87-.21-2.68-.25-.25-.01-.54-.02-.9-.04l-.32-.02.02-.32c.06-.99.1-1.89.13-2.63l.25-4.92c.18-3.7.39-6.69.51-7.91,0-.07.01-.16.02-.26,0-.07.02-.14.02-.21,0-2.79-2.28-3.42-3.08-3.42h-.08c-.96.04-2.15.41-2.33,1.9-.08.61-.08,1.89-.08,3.36v10.62c0,1.24,0,2.52-.04,3.83v.28s-.29.02-.29.02c-2.29.19-3.2.39-3.94.54-.56.12-1,.22-1.82.25-1.47.04-2.01,1.56-2.01,2.58,0,.15,0,.3.03.43.3,1.46,1.86,1.88,3.12,1.99h.23c.64,0,1.17-.27,1.74-.55.65-.33,1.33-.67,2.25-.67h.66v.32c-.09,4.82-.27,9.84-.43,14.15l-.03.58c-.07,1.26-.14,2.45-.18,3.61v.12c0,3.19,1.85,3.67,2.96,3.67.79,0,1.42-.21,1.71-.4.27-.16.66-.79.66-4.28,0-1.08-.04-2.25-.12-3.29-.04-.78-.09-2.36-.09-4.47,0-3.03.05-6.68.13-10v-.3s.83-.03.83-.03l.1.17c.45.78,1.44,1.25,2.88,1.36h.23c.64,0,1.17-.27,1.74-.55.65-.33,1.33-.67,2.25-.67h.66v.32c-.09,4.82-.27,9.84-.43,14.15l-.03.58c-.07,1.26-.14,2.45-.18,3.61v.12c0,3.19,1.85,3.67,2.96,3.67.79,0,1.43-.11,1.7-.4.37-.3.66-.79.66-4.28,0-1.08-.04-2.25-.12-3.29-.04-.78-.08-2.36-.08-4.47,0-3.03.05-6.68.13-10v-.3s.31-.01.31-.01c.92-.03,1.57-.06,2.14-.08,1.06-.05,1.83-.08,3.49-.08.64,0,1.09-.37,1.36-.69l.55-.65v.85c.05,3.11.12,5.67.23,8.05l.12,4.62Z"/>
      <path class="cls-2" d="m133.17,210.08l.05-.09s1.02-1.18,2.78-1.53c.43-.09.87-.13,1.28-.13,1.47,0,2.4.69,2.62,1.94v.22c0,1.88-3.74,5.63-6.79,6.8l-.4.15-.03-.43s-.17-2.25-.17-3.76c.04-1.56.63-3.11.65-3.18m-6.49,10.71c-.29.07-.29.08-.29.2,0,.63.73,3.08,2.79,3.08.3,0,.6-.05.91-.15,4.79-1.54,14.69-6.98,14.69-14.01,0-.4-.04-.8-.12-1.2-.53-3.05-3.01-4.87-6.66-4.87-1.57,0-3.24.38-4.69,1.06l-.49.23.04-.54c.18-2.68.37-5.53.54-8.04.23-3.4.42-6.16.47-6.98,0-.21.01-.41.02-.61.01-.16.02-.31.02-.46,0-1.57-.27-1.98-.86-2.49-.22-.19-.7-.3-1.3-.3-.99,0-2.2.34-2.67,1.11-.54.82-.55,2.68-.57,5.04,0,1.24-.02,2.65-.1,4.17-.27,4.85-.42,9.74-.42,13.75,0,1.1,0,2.13.04,3.09-.08,2.23-.13,4.19-.13,5.26v.84c0,1.51-.76,1.7-1.22,1.82"/>
      <path class="cls-3" d="m151.01,194.18c-1.31,0-2.49.23-3.6,2.16-.13.34-.2.68-.2,1,0,1.52,1.36,2.66,3.17,2.66h.08c1.75-.04,2.66-1.58,2.66-3.08,0-.54-.12-1.09-.35-1.64-.38-.92-1.17-1.11-1.77-1.11"/>
      <path class="cls-2" d="m168.06,212.56c-.05.06-2.94,4.08-4.25,4.08-.33,0-.48-.19-.54-.3-.12-.16-.2-.45-.2-.81,0-.93.57-2.37,1.68-4.27,1.19-2.01,3.98-4.4,5.14-4.4.07,0,.26,0,.39.13.18.18.26.39.26.69,0,1.29-1.74,3.85-2.49,4.89m-1.56,35.22h.17c3.4-.08,8.74-3.29,9.89-9.11,1.13-5.85,1.92-14.9,1.92-22.02,0-3.96-.27-7.51-.75-10.02-.96-4.67-3.61-5.03-4.39-5.03-.49,0-.9.07-1.08.2-.14.06-.3.24-.42.59l-.11.33-.32-.14c-.71-.31-1.53-.48-2.35-.48-1.54,0-3.9.54-6.4,3.14-2.74,2.86-4.44,6.67-4.44,9.94,0,.12,0,.24.02.36l.02.4-.21.09c-1.41.6-3.01,1.23-4.1,1.23-.37,0-.83-.05-1.17-.45-.37-.5-.54-1.41-.54-2.81,0-1.58.23-3.49.41-5.03.05-.44.1-.85.14-1.21,0-.06.01-.15.03-.23.01-1.62-1.46-2.78-2.78-2.78s-2.19,1.11-2.46,3.04c-.16,1.04-.33,2.85-.33,4.78,0,2.89.41,7.83,3.2,8.46.45.08.88.16,1.36.16,2.79,0,6.04-1.39,7.3-1.99l.23-.11.16.2c.99,1.27,2.38,1.94,4.02,1.94s3.48-.74,5.21-2.15c1.47-1.22,3.58-4.19,4.63-5.88l.46-.73.12.85c.23,1.56.34,3.36.34,5.5,0,2.6-.17,5.26-.33,7.82-.08,1.29-.16,2.56-.22,3.78-.42,8.41-3.93,13.44-7.08,13.44-2.1,0-3.42-2.24-3.63-4.44-.02-.27-.04-.54-.07-.81-.15-2-.3-3.88-1.44-3.94h-.07c-1.06,0-1.74,1.72-1.74,4.38v.42c.16,4.07,2.73,8.29,6.78,8.29"/>
      <path class="cls-2" d="m233.47,206.84l.09-.15h.18c.08,0,.15-.01.22-.02.09-.01.17-.02.24-.02,1.99,0,3.13,1.46,3.13,4.01,0,3.13-1.8,7.75-3.42,7.75h-.04c-1.46-.08-1.54-4.61-1.54-5.52,0-2.64.43-4.9,1.14-6.04m-30.03-20.02c-.53.81-.54,2.67-.56,5.03,0,1.25-.02,2.66-.1,4.17-.22,4.85-.42,9.92-.42,14.17s.19,7.1.54,8.75c.5,2.38,2.12,2.73,3.05,2.73,1.01,0,2.02-.38,2.77-1.05.72-.62,1.39-2.61,2.03-4.54.99-2.96,2.02-6.01,3.71-6.29h.09c1.08,0,2,2.51,3.09,5.79.19.56.35,1.06.48,1.42,1.07,3.17,3.19,3.67,5.13,3.74h.11c1.14,0,3.24-.52,5.21-1.3l.29-.11.12.28c.71,1.64,1.68,2.68,2.88,3.08.66.21,1.3.32,1.83.32,5.05,0,7.74-7.49,7.74-12.91,0-3.66-1.1-6.25-2.94-6.92-.62-.21-1.21-.32-1.7-.32-2.14,0-3.78,1.46-3.98,2.05l-.2.59-.36-.51c-.17-.24-.52-.29-.79-.29-.18,0-.41.04-.64.07-1.69.29-2.99,3.99-2.99,8.43,0,.96.07,1.91.2,2.85l.04.25-.24.09c-1.64.61-2.88.75-4.22.35-1.14-.36-1.69-2.14-2.39-4.38-1.08-3.49-2.43-7.82-6.5-7.82h-.42c-3.6.22-5.64,5.83-6.86,9.18l-.8,2.19v-1.79c0-.61.88-13.88,1.36-21.01l.24-3.57c0-.21.01-.41.02-.6,0-.16.02-.31.02-.47,0-1.57-.27-1.98-.86-2.49-.22-.19-.69-.3-1.26-.3-.91,0-2.17.29-2.72,1.12"/>
      <path class="cls-2" d="m249.11,215.94l.21-4.09c.04-.54.07-1.06.1-1.57.03-.58.07-1.15.11-1.71l.02-.22.22-.06c.86-.23,1.84-.35,2.85-.35,2.83,0,5.86.91,5.86,3.46,0,.6-.17,1.25-.49,1.9-1.02,2.13-5.17,3.45-8.59,3.49h-.32s.04-.71.04-.86m2.21,5.31c5.96,0,11.41-4.59,11.65-9.82v-.36c0-4.3-4.05-7.59-9.64-7.83-1.09,0-2.16.09-3.09.25l-.35.06-.02-.35c-.16-2.53-2.34-3.1-3.09-3.1h-.08c-.77.04-2.1.33-2.29,1.9-.08.63-.12,1.94-.12,3.57,0,.98.01,2.04.02,3.09.01,1.03.02,2.04.02,2.96,0,0,0,2.02-.04,4.37,0,7.17-.15,13.59-.5,21.46-.02.43-.04.7-.06.93-.04.59-.07.98-.1,3.29v.21c0,2.07.86,3.25,2.37,3.25.41,0,1.01-.09,1.57-.54.41-.33.69-.67.68-3.59,0-1.19-.08-2.48-.17-3.8-.04-.29-.04-.71-.04-1.2,0-3.04.41-9.39.74-14.49l.04-.53.34.06c.86.14,1.53.21,2.17.21"/>
      <path class="cls-2" d="m270,215.42l-.54.31.07-.62c.42-3.94,2.67-6.03,4.14-6.03.56,0,.98.31,1.14.86.06.1.06.28.06.38,0,1.85-3.06,4.08-4.86,5.11m3.58-11c-.48,0-1,.08-1.5.24-3.55,1.1-6.79,6.34-6.79,10.99,0,1.82.5,4.26,2.9,5.6,1.28.7,2.81,1.05,4.55,1.05,4.37,0,9.28-2.16,11.99-4.18,1.67-1.23,2.52-2.22,2.52-2.93,0-.22-.09-.41-.26-.55h0c-.27-.23-.53-.35-.8-.35-.52,0-1.2.29-2,.86-2.48,1.74-7.26,3.54-10.97,3.54h-2.74l2.06-.62c2.03-.61,6.12-3.56,6.37-7.61v-.4c0-3.22-2.28-5.65-5.31-5.65"/>
    </g>
  </g>
</svg>